<svg xmlns="http://www.w3.org/2000/svg" viewBox="0 0 400 320" fill="none">
  <!-- Canillo - northeast, largest parish -->
  <path id="canillo"
    d="M 260 40 L 320 50 L 360 80 L 370 120 L 340 150 L 300 155 L 270 140 L 250 110 L 248 80 Z"
    stroke="rgba(255,255,255,0.18)" stroke-width="1.5" />

  <!-- Encamp - central east -->
  <path id="encamp"
    d="M 210 70 L 248 80 L 250 110 L 270 140 L 300 155 L 295 175 L 260 180 L 235 165 L 215 140 L 200 110 L 205 85 Z"
    stroke="rgba(255,255,255,0.18)" stroke-width="1.5" />

  <!-- Ordino - northwest -->
  <path id="ordino"
    d="M 80 40 L 140 35 L 175 55 L 185 85 L 170 110 L 145 120 L 110 115 L 80 100 L 65 75 Z"
    stroke="rgba(255,255,255,0.18)" stroke-width="1.5" />

  <!-- La Massana - west central -->
  <path id="la-massana"
    d="M 65 75 L 110 115 L 145 120 L 155 145 L 135 165 L 105 170 L 75 155 L 55 130 L 50 100 Z"
    stroke="rgba(255,255,255,0.18)" stroke-width="1.5" />

  <!-- Andorra la Vella - central south, capital -->
  <path id="andorra-la-vella"
    d="M 155 145 L 175 140 L 200 145 L 215 140 L 235 165 L 225 185 L 200 195 L 175 190 L 158 178 L 150 162 Z"
    stroke="rgba(255,255,255,0.18)" stroke-width="1.5" />

  <!-- Escaldes-Engordany - central, between capital and Encamp -->
  <path id="escaldes-engordany"
    d="M 175 140 L 200 110 L 215 140 L 200 145 Z"
    stroke="rgba(255,255,255,0.18)" stroke-width="1.5" />

  <!-- Sant Julià de Lòria - south -->
  <path id="sant-julia-de-loria"
    d="M 105 170 L 135 165 L 155 145 L 150 162 L 158 178 L 175 190 L 175 220 L 145 235 L 110 220 L 90 200 L 88 180 Z"
    stroke="rgba(255,255,255,0.18)" stroke-width="1.5" />
</svg>
